<svg width="100" height="100" xmlns="http://www.w3.org/2000/svg" xmlns:xlink="http://www.w3.org/1999/xlink" version="1.1"
                              id="Capa_1" x="0px" y="0px" viewBox="0 0 491.52 491.52" style="enable-background:new 0 0 491.52 491.52;"
                              xml:space="preserve">
                              <circle style="fill:#eeeeee;" cx="245.76" cy="245.76" r="245.76" />

                              <g>
                                  <path style="fill:#64798A;" d="M203.934,173.291c3.742-1.919,5.238-6.288,3.237-9.348l-36.896-56.422   c-1.58-2.416-4.847-3.245-7.895-1.957c-4.353,1.839-10.995,4.763-18.194,8.337l44.34,67.807   C194.085,178.447,199.706,175.459,203.934,173.291z"
                                  />
                                  <path style="fill:#64798A;" d="M322.482,350.397c2.402-2.276,2.952-5.602,1.373-8.017l-36.896-56.422   c-2.001-3.06-6.602-3.441-9.862-0.783c-3.682,3.004-8.672,6.956-13.888,10.741l44.341,67.807   C313.71,358.56,319.052,353.647,322.482,350.397z"
                                  />
                                  <path style="fill:#64798A;" d="M240.064,308.295c-43.822,0.808-90.469-70.526-72.159-110.348c1.477-3.214,6.715-7.365,12.99-11.487   l-44.727-68.398c-13.976,7.568-27.722,16.928-29.564,25.246c-15.883,71.726,86.862,228.847,158.939,243.053   c8.358,1.647,22.444-7.193,34.981-16.962l-44.727-68.398C249.503,305.097,243.6,308.23,240.064,308.295z"
                                  />
                              </g>
                              <g>
                                  <path style="fill:#E56353;" d="M269.69,150.086c3.115-4.255,4.66-8.56,4.66-12.917c0-4.356-1.659-8.067-4.977-11.125   c-3.318-3.058-7.522-4.59-12.6-4.59c-8.928,0-16.336,4.565-22.249,13.689l-14.791-8.554c4.774-7.161,10.042-12.556,15.804-16.184   c5.749-3.634,13.17-5.445,22.25-5.445c9.08,0,17.032,2.875,23.883,8.636c6.851,5.755,10.27,13.613,10.27,23.573   c0,5.604-1.456,10.947-4.356,16.025c-2.9,5.084-8.244,11.619-16.032,19.609l-25.517,25.985h49.324v17.583h-74.372v-15.563   l32.988-33.14C261.332,160.197,266.575,154.341,269.69,150.086z"
                                  />
                                  <path style="fill:#E56353;" d="M356.054,172.335v-19.919h17.425v19.919h13.081v16.652h-13.081v27.384h-17.425v-27.384h-46.677   v-16.184l39.991-65.203h20.071l-39.37,64.735H356.054z"
                                  />
                              </g>
                              <g>
                                  <path style="fill:#E68443;" d="M226.33,254.35v17.695h-6.885v-45.527h6.885v18.8c0.98-2.005,2.465-3.583,4.45-4.73   c1.99-1.145,4.13-1.72,6.425-1.72c3.685,0,6.665,1.128,8.935,3.38c2.275,2.253,3.41,5.508,3.41,9.768v20.03h-6.88v-17.94   c0-6.022-2.5-9.033-7.495-9.033c-2.375,0-4.445,0.79-6.205,2.365C227.21,249.015,226.33,251.32,226.33,254.35z"
                                  />
                                  <path style="fill:#E68443;" d="M286.475,267.653c-3.275,3.255-7.37,4.885-12.285,4.885c-4.915,0-9.01-1.63-12.29-4.885   c-3.275-3.258-4.915-7.24-4.915-11.95c0-4.71,1.64-8.695,4.915-11.95c3.28-3.258,7.375-4.885,12.29-4.885   c4.915,0,9.01,1.628,12.285,4.885c3.28,3.255,4.92,7.24,4.92,11.95C291.395,260.413,289.755,264.395,286.475,267.653z    M266.785,263.413c1.945,1.988,4.415,2.98,7.405,2.98c2.99,0,5.455-0.992,7.405-2.98c1.945-1.985,2.915-4.555,2.915-7.71   s-0.97-5.725-2.915-7.712c-1.95-1.985-4.415-2.978-7.405-2.978c-2.99,0-5.46,0.993-7.405,2.978   c-1.945,1.987-2.915,4.557-2.915,7.712S264.84,261.428,266.785,263.413z"
                                  />
                                  <path style="fill:#E68443;" d="M322.05,257.053V239.36h6.885v32.685h-6.885v-5.96c-1.105,2.007-2.63,3.585-4.575,4.73   c-1.945,1.148-4.045,1.723-6.3,1.723c-3.685,0-6.665-1.128-8.935-3.38c-2.275-2.253-3.41-5.507-3.41-9.77V239.36h6.88v17.94   c0,6.02,2.495,9.03,7.495,9.03c2.375,0,4.445-0.788,6.205-2.365C321.17,262.39,322.05,260.085,322.05,257.053z"
                                  />
                                  <path style="fill:#E68443;" d="M356.03,245.81c-3.4,0-5.96,1.105-7.68,3.318c-1.72,2.212-2.58,5.182-2.58,8.91v14.008h-6.885   V239.36h6.885v6.572c1.105-2.048,2.61-3.725,4.515-5.037c1.905-1.31,3.92-1.988,6.05-2.028l0.06,6.943   C356.275,245.81,356.15,245.81,356.03,245.81z"
                                  />
                                  <path style="fill:#E68443;" d="M386.56,262.275c0,3.115-1.125,5.602-3.375,7.465c-2.255,1.865-5.145,2.797-8.665,2.797   c-2.375,0-4.845-0.43-7.405-1.29c-2.56-0.863-4.82-2.07-6.785-3.625l3.315-5.348c3.81,2.867,7.495,4.302,11.06,4.302   c1.555,0,2.785-0.358,3.685-1.075s1.355-1.63,1.355-2.735c0-1.638-2.175-3.113-6.515-4.423c-0.33-0.125-0.575-0.205-0.735-0.247   c-6.8-1.842-10.2-4.915-10.2-9.215c0-3.03,1.175-5.457,3.53-7.28c2.355-1.822,5.42-2.735,9.185-2.735   c3.77,0,7.335,1.105,10.69,3.318l-2.58,5.1c-2.66-1.76-5.55-2.643-8.66-2.643c-1.64,0-2.97,0.298-3.995,0.89   c-1.025,0.595-1.535,1.488-1.535,2.675c0,1.065,0.53,1.842,1.595,2.332c0.74,0.37,1.775,0.717,3.105,1.045   c1.33,0.33,2.51,0.655,3.53,0.983c1.025,0.33,2.02,0.697,2.98,1.107c0.965,0.41,2,0.982,3.105,1.72   C385.455,256.87,386.56,259.163,386.56,262.275z"
                                  />
                              </g>

                          </svg>