 <svg width="100" height="100" xmlns="http://www.w3.org/2000/svg" xmlns:xlink="http://www.w3.org/1999/xlink" version="1.1"
                              id="Capa_1" x="0px" y="0px" viewBox="0 0 409.6 409.6" style="enable-background:new 0 0 409.6 409.6;"
                              xml:space="preserve">
                              <circle style="fill:#eeeeee ;" cx="204.8" cy="204.8" r="204.8" />

                              <circle style="fill:#F6C358;" cx="138.658" cy="163.541" r="24.41" />
                              <path style="fill:#FCD462;" d="M189.848,239.128c0-28.272-22.919-51.191-51.191-51.191s-51.191,22.919-51.191,51.191H189.848z"
                              />
                              <path style="fill:#F6C358;" d="M87.467,239.128c0-28.272,22.919-51.191,51.191-51.191v51.191H87.467z" />
                              <path style="fill:#FCD462;" d="M138.657,187.938c13.48,0,24.408-10.928,24.408-24.408c0-13.48-10.928-24.408-24.408-24.408V187.938z  "
                              />
                              <circle style="fill:#44C4A1;" cx="270.933" cy="162.347" r="24.41" />
                              <path style="fill:#3EA69B;" d="M322.133,237.931c0-28.272-22.919-51.191-51.191-51.191s-51.191,22.919-51.191,51.191H322.133z"
                              />
                              <path style="fill:#44C4A1;" d="M219.752,237.931c0-28.272,22.919-51.191,51.191-51.191v51.191H219.752z" />
                              <path style="fill:#3EA69B;" d="M270.943,186.741c13.48,0,24.408-10.928,24.408-24.408c0-13.48-10.928-24.408-24.408-24.408V186.741z  "
                              />
                              <circle style="fill:#F57C00;" cx="202.709" cy="171.477" r="32.35" />
                              <path style="fill:#FA9A3A;" d="M257.508,271.676c7.469,0,13.14-6.871,11.587-14.176c-6.519-30.668-33.756-53.674-66.367-53.674  s-59.848,23.007-66.367,53.674c-1.553,7.306,4.118,14.176,11.587,14.176H257.508z"
                              />
                              <path style="fill:#F57C00;" d="M136.361,257.499c6.519-30.668,33.756-53.674,66.367-53.674v67.85h-54.78  C140.479,271.676,134.808,264.805,136.361,257.499z"
                              />
                              <path style="fill:#FA9A3A;" d="M202.728,203.825c17.867,0,32.352-14.484,32.352-32.352s-14.484-32.352-32.352-32.352V203.825z"
                              />

                          </svg>