<?xml version="1.0"?>
<svg xmlns="http://www.w3.org/2000/svg" xmlns:xlink="http://www.w3.org/1999/xlink" version="1.1" id="Capa_1" x="0px" y="0px" viewBox="0 0 512 512" style="enable-background:new 0 0 512 512;" xml:space="preserve" width="512px" height="512px" class=""><g><circle style="fill:#EEEEEE" cx="256" cy="256" r="256" data-original="#303F9E" class="" data-old_color="#eeeeee"/><path style="fill:#EEEEEE" d="M336.441,499.09c76.673-25.359,137.285-85.969,162.646-162.641L338.729,176.091l-15.324,23.645  l-77.794-77.794H131.578l108.771,108.771L173.71,336.359L336.441,499.09z" data-original="#1A237E" class="active-path" data-old_color="#eeeeee"/><polygon style="fill:#00E4FE;" points="245.612,121.943 188.595,64.941 131.578,121.943 161.912,121.943 161.912,217.574   215.278,217.574 215.278,121.943 " data-original="#00E4FE" class=""/><polygon style="fill:#00BBD3;" points="188.595,64.941 188.69,217.574 215.278,217.574 215.278,121.943 245.612,121.943 " data-original="#00BBD3" class=""/><polygon style="fill:#FE5722;" points="266.388,390.057 323.405,447.074 380.422,390.057 350.088,390.057 350.088,294.426   296.722,294.426 296.722,390.057 " data-original="#FE5722"/><polygon style="fill:#E54A19;" points="323.405,447.074 380.422,390.057 350.088,390.057 350.088,294.426 322.619,294.426 " data-original="#E54A19"/><circle style="fill:#FEEA3B;" cx="256" cy="256" r="115.03" data-original="#FEEA3B"/><path style="fill:#FED500;" d="M256,140.974c-0.215,0-0.428,0.007-0.643,0.008v230.037c0.215,0.001,0.428,0.008,0.643,0.008  c63.527,0,115.026-51.499,115.026-115.026S319.527,140.974,256,140.974z" data-original="#FED500"/><circle style="fill:#FEC007;" cx="256" cy="256" r="86.77" data-original="#FEC007"/><path style="fill:#FEAA00;" d="M256,169.226c-0.215,0-0.428,0.007-0.643,0.008v173.532c0.215,0.002,0.428,0.008,0.643,0.008  c47.924,0,86.774-38.85,86.774-86.774S303.924,169.226,256,169.226z" data-original="#FEAA00"/><path style="fill:#FEF5E0;" d="M292.594,232.484v-4.674c0-13.547-11.021-24.569-24.568-24.569H266v-11.673h-20v11.673h-2.026  c-13.547,0-24.568,11.021-24.568,24.569v13.457c0,13.547,11.021,24.569,24.568,24.569h24.052c2.519,0,4.568,2.05,4.568,4.569v13.786  c0,2.519-2.049,4.569-4.568,4.569h-24.052c-2.519,0-4.568-2.049-4.568-4.569v-3.058h-20v3.058c0,13.547,11.021,24.569,24.568,24.569  H246v11.673h20V308.76h2.026c13.547,0,24.568-11.022,24.568-24.569v-13.786c0-13.547-11.021-24.569-24.568-24.569h-24.052  c-2.519,0-4.568-2.049-4.568-4.569V227.81c0-2.519,2.049-4.569,4.568-4.569h24.052c2.519,0,4.568,2.049,4.568,4.569v4.674H292.594z" data-original="#FEF5E0"/><g>
	<path style="fill:#E0E0E0" d="M268.026,265.835c2.519,0,4.568,2.05,4.568,4.569v13.786c0,2.519-2.049,4.569-4.568,4.569h-12.669   v31.673H266v-11.673h2.026c13.547,0,24.568-11.022,24.568-24.569v-13.786c0-13.547-11.021-24.569-24.568-24.569h-12.669v20H268.026   z" data-original="#E0E0E0" class=""/>
	<path style="fill:#E0E0E0" d="M292.594,232.484v-4.674c0-13.547-11.021-24.569-24.568-24.569H266v-11.673h-10.643v31.673h12.669   c2.519,0,4.568,2.049,4.568,4.569v4.674H292.594z" data-original="#E0E0E0" class=""/>
</g></g> </svg>
