 <svg width="100" height="100" version="1.1" id="Layer_1" xmlns="http://www.w3.org/2000/svg" xmlns:xlink="http://www.w3.org/1999/xlink"
                              x="0px" y="0px" viewBox="0 0 512 512" style="enable-background:new 0 0 512 512;" xml:space="preserve">
                              <path style="fill:#eeeeee;" d="M256,0c141.386,0,256,114.614,256,256c0,141.386-114.614,256-256,256C114.614,512,0,397.386,0,256
                                                                      C0,114.614,114.614,0,256,0z" />

                              <g>
                                  <g>
                                      <polygon style="fill:#FFFFFF;" points="204.873,377.829 91.815,416.023 91.815,165.465 204.873,127.269 		" />
                                      <polygon style="fill:#FFFFFF;" points="438.624,370.189 325.568,408.385 325.568,157.826 438.624,119.632 		" />
                                      <polygon style="fill:#FFFFFF;" points="325.568,408.385 204.873,377.829 204.873,127.269 325.568,157.826 		" />
                                      <polygon style="fill:#FFFFFF;" points="325.568,174.25 204.873,142.93 204.873,142.802 107.093,176.43 107.093,394.736 
                                                                              204.873,361.277 204.873,361.279 325.568,391.96 423.346,359.224 423.346,140.919 		"
                                      />
                                  </g>
                                  <g>
                                      <path style="fill:#86B850;" d="M213.797,145.246c2.391,14.532,5.161,30.867,6.812,39.001c18.925-2.776,43.236-6.458,48.293-7.781
                                                                              l-4.151-17.996L213.797,145.246z M271.361,160.183l8.042,38.162l52.524,1.488l34.094-25.948l3.768-14.71l-44.22,15.075
                                                                              L271.361,160.183z" />
                                      <path style="fill:#86B850;" d="M199.057,193.571c2.172,12.754,3.999,23.36,4.286,24.604l-0.042,0.002
                                                                              c0.106,0.555,0.169,0.887,0.169,0.887l-23.809,3.692l-0.762-6.111l16.974-3.102l-10.517-64.03l-54.318,18.68l39.458,92.759
                                                                              l66.458-9.932l37.961-48.502l-4.492-19.463L199.057,193.571z M191.272,147.482c1.026,6.107,4.008,23.833,6.755,40.023
                                                                              c2.116-0.3,8.283-1.179,16.162-2.323l-6.831-41.609l-2.485-0.644v-0.129L191.272,147.482z"
                                      />
                                  </g>
                                  <g>
                                      <polygon style="fill:#BBBBBB;" points="107.093,210.534 132.267,210.534 115.214,173.636 107.093,176.43 		" />
                                      <path style="fill:#BBBBBB;" d="M154.189,284.585l-21.562-15.604l-17.812,31.649l-3.33-1.874l18.027-32.027l-22.419-16.222v65.029
                                                                              l32.848,5.765L154.189,284.585z M107.093,245.793l48.523,35.11l4.185-10.784l-25.77-55.765h-26.938V245.793z"
                                      />
                                  </g>
                                  <path style="fill:#86B850;" d="M157.036,377.648l1.239-12.805l-19.099-27.501c0,0-21.67-4.712-32.083-6.364v63.757L157.036,377.648
                                                                          z" />
                                  <polygon style="fill:#BBBBBB;" points="175.844,361.788 177.411,370.673 204.873,361.277 204.873,361.279 268.207,377.378 
                                                                          269.038,350.327 228.551,342.689 	" />
                                  <g>
                                      <polygon style="fill:#86B850;" points="338.018,370.189 274.737,370.189 274.561,378.993 325.568,391.96 349.59,383.917 		"
                                      />
                                      <polygon style="fill:#86B850;" points="308.281,334.907 275.149,349.565 274.812,366.369 334.799,366.369 		" />
                                  </g>
                                  <g>
                                      <polygon style="fill:#BBBBBB;" points="355.919,309.424 367.246,329.96 388.847,317.569 377.224,297.202 		" />
                                      <polygon style="fill:#BBBBBB;" points="402.922,160.119 423.346,180.772 423.346,142.562 		" />
                                      <polygon style="fill:#BBBBBB;" points="371.564,259.135 391.328,294.18 423.346,274.322 423.346,227.019 		" />
                                      <polygon style="fill:#BBBBBB;" points="423.346,188.567 398.756,163.702 373.121,185.737 401.466,234.138 423.346,220.569 		"
                                      />
                                      <polygon style="fill:#BBBBBB;" points="352.527,253.918 331.096,260.084 336.231,281.728 330.899,282.995 325.82,261.603 
                                                                              304.179,267.827 314.109,327.41 374.647,292.684 		"
                                      />
                                      <path style="fill:#BBBBBB;" d="M414.337,362.241l-22.917-40.164l-26.548,15.152l-2.508-4.471l0.128-0.073l-11.329-20.533
                                                                              l-36.243,20.793l39.907,49.22L414.337,362.241z M423.346,280.773l-29.322,18.186l29.322,51.992V280.773z"
                                      />
                                      <polygon style="fill:#BBBBBB;" points="368.896,189.37 344.194,210.604 368.868,254.358 396.805,237.029 		" />
                                  </g>
                                  <g>
                                      <polygon style="fill:#606060;" points="143.759,214.354 143.759,210.534 132.267,210.534 107.093,210.534 107.093,214.354 
                                                                              134.031,214.354 		" />
                                      <polygon style="fill:#606060;" points="107.093,250.507 129.512,266.729 111.485,298.757 114.815,300.63 132.627,268.981 
                                                                              154.189,284.585 155.212,285.324 157.451,282.23 155.616,280.903 107.093,245.793 		"
                                      />
                                      <path style="fill:#606060;" d="M423.346,274.322l-32.018,19.857l-19.764-35.044l51.782-32.116v-6.45l-21.88,13.569l-28.344-48.401
                                                                              l25.634-22.036l0,0l24.59,24.865v-7.795l-20.423-20.653l20.423-17.557v-1.643l-25.371,8.647l-3.131,2.383l-0.971-0.983
                                                                              l-3.152,1.074l-1.768,1.748l1.494,1.51l-24.425,18.588l-34.094,25.948l-1.012,0.772l9.094,10.393l3.892,27.799l8.627,15.12
                                                                              l22.121,38.766l-60.539,34.726l-2.509,1.438l-0.547-0.675l-4.583,4.585l1.812,2.149l26.519,31.462h-59.987h-1.953l-2.293,3.82
                                                                              h4.171h63.28l11.572,13.728l5.236-1.752l-39.907-49.22l36.243-20.793l11.329,20.533l-0.128,0.073l2.508,4.471l26.548-15.152
                                                                              l22.917,40.164l9.009-3.017v-8.274l-29.322-51.992l29.322-18.186V274.322z M344.194,210.604L344.194,210.604l24.702-21.234
                                                                              l27.909,47.659l-27.937,17.328L344.194,210.604z M367.246,329.96L367.246,329.96l-11.327-20.535l21.305-12.223l11.623,20.368
                                                                              L367.246,329.96z" />
                                  </g>
                                  <path style="fill:#FFFFFF;" d="M264.752,158.469l4.151,17.996c-5.057,1.324-29.368,5.005-48.293,7.781
                                                                          c-1.651-8.134-4.421-24.468-6.812-39.001l-6.439-1.672l6.831,41.609c-7.879,1.144-14.046,2.023-16.162,2.323
                                                                          c-2.747-16.19-5.729-33.917-6.755-40.023l-5.915,2.031l10.517,64.03l-16.974,3.102l0.762,6.111l23.809-3.692
                                                                          c0,0-0.064-0.332-0.169-0.887l0.042-0.002c-0.287-1.244-2.114-11.849-4.286-24.604l71.366-10.516l4.492,19.463l1.614,7.005
                                                                          l3.837,0.76l0.894-1.276l0.396,0.03l-2.254-10.692l-8.042-38.162L264.752,158.469z"
                                  />
                                  <polygon style="fill:#BBBBBB;" points="230.082,272.41 203.934,276.404 200.897,299.755 195.461,299.047 198.294,277.268 
                                                                          175.079,280.814 156.745,327.412 168.968,341.161 223.97,326.647 	"
                                  />
                                  <polygon style="fill:#86B850;" points="280.367,210.284 250.706,252.55 342.372,235.744 330.915,212.829 281.657,209.037 
                                                                          281.261,209.008 	" />
                                  <g>
                                      <polygon style="fill:#BBBBBB;" points="245.36,273.938 243.523,291.507 294.26,291.507 291.193,269.354 		" />
                                      <polygon style="fill:#BBBBBB;" points="240.009,325.119 271.331,333.523 298.067,319.008 295.529,300.674 242.566,300.674 		"
                                      />
                                  </g>
                                  <g>
                                      <path style="fill:#606060;" d="M336.231,281.728l-5.135-21.645l-1.963-8.271c-1.448,1.182-3.127,2.052-5.03,2.55l1.718,7.24
                                                                              l5.079,21.392L336.231,281.728z"
                                      />
                                      <path style="fill:#606060;" d="M200.897,299.755l3.038-23.351l0.93-7.139c-1.771,0.591-3.649,0.81-5.607,0.6l-0.962,7.403
                                                                              l-2.833,21.779L200.897,299.755z"
                                      />
                                  </g>

                                  <path style="fill:#F3501E;" d="M275.381,65.267c-25.504,0-46.179,20.677-46.179,46.179c0,36.89,46.179,100.785,46.179,100.785
                                                                          s46.184-61.574,46.184-100.785C321.565,85.944,300.887,65.267,275.381,65.267z M275.381,146.801L275.381,146.801
                                                                          c-19.523,0-35.351-15.828-35.351-35.356c0-19.521,15.828-35.351,35.351-35.351c19.525,0,35.351,15.83,35.351,35.351
                                                                          C310.732,130.973,294.906,146.801,275.381,146.801z"
                                  />
                                  <path style="fill:#E54A18;fill-opacity:0.6;" d="M275.557,65.267c-0.119,0-0.174,0.007-0.174,0.009v10.828
                                                                          c0,0,0.057-0.009,0.174-0.009c19.523,0,35.264,15.83,35.264,35.351c0,19.528-15.695,35.356-35.218,35.356
                                                                          c-0.119,0-0.22-0.009-0.22-0.009v64.946c0,0.322,0.174,0.492,0.174,0.492s46.184-61.574,46.184-100.785
                                                                          C321.741,85.944,301.061,65.267,275.557,65.267z"
                                  />
                              </g>

                              <path style="fill:#FFFFFF;" d="M275.383,76.095c-19.525,0-35.353,15.83-35.353,35.351c0,19.525,15.828,35.353,35.353,35.353
                                                                      c0.073,0,0.147,0,0.22,0c19.419-0.119,35.129-15.901,35.129-35.353c0-19.461-15.732-35.255-35.172-35.351H275.383z"
                              />

                          </svg>