<svg width="100" height="100" xmlns="http://www.w3.org/2000/svg" xmlns:xlink="http://www.w3.org/1999/xlink" version="1.1"
                          id="Capa_1" x="0px" y="0px" viewBox="0 0 409.6 409.6" style="enable-background:new 0 0 409.6 409.6;"
                          xml:space="preserve">
                          <circle style="fill:#eeeeee ;" cx="204.8" cy="204.8" r="204.8" />

                          <g>

                              <rect x="163.885" y="157.603" transform="matrix(-0.8562 0.5166 -0.5166 -0.8562 510.0014 186.7948)" style="fill:#DC8744;"
                                  width="130.244" height="13.53" />

                              <rect x="222.247" y="183.122" transform="matrix(-0.5165 0.8563 -0.8563 -0.5165 559.8632 180.3582)" style="fill:#DC8744;"
                                  width="13.53" height="130.244" />
                          </g>
                          <circle style="fill:#D15241;" cx="143.151" cy="198.016" r="63.902" />
                          <circle style="fill:#FCD462;" cx="288.256" cy="129.536" r="42.082" />
                          <circle style="fill:#3EA69B;" cx="284.757" cy="280.064" r="42.082" />
                          <path style="fill:#E56353;" d="M143.152,261.91c35.292,0,63.901-28.61,63.901-63.901s-28.61-63.901-63.901-63.901V261.91z" />
                          <path style="fill:#F6C358;" d="M288.267,171.63c23.241,0,42.082-18.841,42.082-42.082s-18.841-42.082-42.082-42.082V171.63z"
                          />
                          <path style="fill:#31978C;" d="M284.773,322.133c23.241,0,42.082-18.841,42.082-42.082s-18.841-42.082-42.082-42.082V322.133z"
                          />
                          <circle style="fill:#3A556A;" cx="143.151" cy="171.349" r="18.974" />
                          <path style="fill:#2F4859;" d="M103.363,230.12c0-21.975,17.814-39.79,39.79-39.79s39.79,17.814,39.79,39.79" />
                          <circle style="fill:#3A556A;" cx="288.256" cy="113.468" r="10.948" />
                          <path style="fill:#2F4859;" d="M265.308,147.374c0-12.68,10.279-22.959,22.959-22.959s22.959,10.279,22.959,22.959" />
                          <circle style="fill:#3A556A;" cx="284.757" cy="263.966" r="10.948" />
                          <path style="fill:#2F4859;" d="M261.814,297.873c0-12.68,10.279-22.959,22.959-22.959s22.959,10.279,22.959,22.959" />

                      </svg>