<svg xmlns="http://www.w3.org/2000/svg" viewBox="0 0 1400 980"><defs><style>.cls-1{fill:#f9ed32;}.cls-2{fill:#efdc2e;}.cls-3{fill:#fff;}.cls-4{fill:#d1d3d4;}.cls-5{fill:#bcbec0;}.cls-6{fill:#00a79d;}.cls-7{fill:#a7a9ac;}.cls-8{fill:#416f7f;}.cls-9{fill:#375e70;}.cls-10{fill:#354a61;}.cls-11{fill:#09ccb9;}.cls-12{fill:#e6e7e8;}.cls-13{fill:#262626;opacity:0.1;}.cls-14{fill:#54c3f0;}</style></defs><title>EEZY</title><g id="BACKGROUND"><rect class="cls-1" width="1400" height="980"/><polygon class="cls-2" points="0 408.94 0 448.24 311.24 455.17 0 408.94"/><polygon class="cls-2" points="34.45 0 0 0 0 33.58 352.28 249.88 34.45 0"/><polygon class="cls-2" points="0 287.71 0 323.8 291.12 383.29 0 287.71"/><polygon class="cls-2" points="0 136.52 0 189.34 346.6 324.31 0 136.52"/><polygon class="cls-2" points="379.81 713.21 0 946.42 0 980 47.08 980 379.81 713.21"/><polygon class="cls-2" points="0 798.5 0 843.48 318.19 671.08 0 798.5"/><polygon class="cls-2" points="235.42 980 403.15 790.75 191.66 980 235.42 980"/><polygon class="cls-2" points="0 656.2 0 699.64 322.77 590.24 0 656.2"/><polygon class="cls-2" points="0 538.47 0 571.06 279.29 529.57 0 538.47"/><polygon class="cls-2" points="735.95 0 734.08 68.81 743.97 0 735.95 0"/><polygon class="cls-2" points="876.09 105.86 932.79 0 917.89 0 876.09 105.86"/><polygon class="cls-2" points="824.37 0 801.8 113.19 839.57 0 824.37 0"/><polygon class="cls-2" points="1028.25 0 924.54 170.74 1060.11 0 1028.25 0"/><polygon class="cls-2" points="424.58 213.43 235.42 0 181.43 0 424.58 213.43"/><polygon class="cls-2" points="587.97 82.55 570.69 0 560.43 0 587.97 82.55"/><polygon class="cls-2" points="455.37 145.44 365.11 0 339.89 0 455.37 145.44"/><polygon class="cls-2" points="535.78 135.91 482.11 0 461.3 0 535.78 135.91"/><polygon class="cls-2" points="666.79 101.1 664.05 0 651.28 0 666.79 101.1"/><polygon class="cls-2" points="1400 571.06 1400 531.76 1088.76 524.83 1400 571.06"/><polygon class="cls-2" points="1400 692.28 1400 656.2 1108.88 596.71 1400 692.28"/><polygon class="cls-2" points="1400 843.48 1400 790.66 1053.4 655.69 1400 843.48"/><polygon class="cls-2" points="1400 441.53 1400 408.94 1120.71 450.43 1400 441.53"/><polygon class="cls-2" points="1400 181.5 1400 136.52 1081.81 308.92 1400 181.5"/><polygon class="cls-2" points="1400 323.8 1400 280.36 1077.23 389.76 1400 323.8"/><polygon class="cls-2" points="1164.58 0 996.85 189.26 1208.34 0 1164.58 0"/><polygon class="cls-2" points="1020.19 266.79 1400 33.58 1400 0 1352.92 0 1020.19 266.79"/><polygon class="cls-2" points="1365.55 980 1400 980 1400 946.42 1047.72 730.12 1365.55 980"/><polygon class="cls-2" points="523.91 874.14 467.21 980 482.11 980 523.91 874.14"/><polygon class="cls-2" points="975.42 766.57 1164.58 980 1218.57 980 975.42 766.57"/><polygon class="cls-2" points="665.92 911.2 656.03 980 664.05 980 665.92 911.2"/><polygon class="cls-2" points="733.21 878.9 735.95 980 748.72 980 733.21 878.9"/><polygon class="cls-2" points="475.46 809.26 339.89 980 371.75 980 475.46 809.26"/><polygon class="cls-2" points="598.2 866.81 560.43 980 575.63 980 598.2 866.81"/><polygon class="cls-2" points="812.03 897.45 829.31 980 839.57 980 812.03 897.45"/><polygon class="cls-2" points="944.63 834.56 1034.89 980 1060.11 980 944.63 834.56"/><polygon class="cls-2" points="864.22 844.09 917.89 980 938.7 980 864.22 844.09"/></g><g id="OBJECT"><polygon class="cls-3" points="0 0 0 367.1 869 470.1 809.4 605.95 1101 478.1 1400 456.61 1400 0 0 0"/><path class="cls-4" d="M758,589.58,483,639.77,470.3,570.2C604.09,545.78,660.17,504,722.52,395.13Z"/><path class="cls-5" d="M758,589.58,483,639.77l12.7,69.58c133.79-24.42,201-5.17,297.8,74.69Z"/><rect class="cls-6" x="379.8" y="563.39" width="104" height="171" rx="15.33" ry="15.33" transform="translate(-109.48 88.07) rotate(-10.34)"/><path class="cls-5" d="M378.46,730.29l14.84-2.71L368,588.87l-14.84,2.71A17.58,17.58,0,0,0,339,612l19,104.11A17.58,17.58,0,0,0,378.46,730.29Z"/><path class="cls-7" d="M355,591.57l25.2,138.05c0,.11.05.22.08.32l13-2.37L368,588.87l-13,2.37C355,591.35,355,591.46,355,591.57Z"/><path class="cls-4" d="M350.48,712.52l6.64-1.21-17.24-94.44-6.64,1.21a17.58,17.58,0,0,0-14.14,20.45L330,698.38A17.58,17.58,0,0,0,350.48,712.52Z"/><path class="cls-7" d="M329.82,619.07l17.11,93.73a17.66,17.66,0,0,0,3.56-.28l6.64-1.21-17.24-94.44-6.64,1.21A17.66,17.66,0,0,0,329.82,619.07Z"/><path class="cls-8" d="M522.65,843.42A174.06,174.06,0,0,1,479.93,727l-68.86,12.57a15.43,15.43,0,0,1-1.79.21,230,230,0,0,0,56.44,146.75c16.22,18.7,43.54,19.63,56.59,5.33h0C535.47,877.53,534.18,856.89,522.65,843.42Z"/><path class="cls-9" d="M515.82,857.87a193.48,193.48,0,0,1-47.48-128.74l-57.26,10.45a15.43,15.43,0,0,1-1.79.21,230,230,0,0,0,56.44,146.75c16.22,18.7,43.54,19.63,56.59,5.33h0a36.81,36.81,0,0,0,3.54-4.53A41.82,41.82,0,0,0,515.82,857.87Z"/><path class="cls-10" d="M412.87,749.42l67.27-12.28c-.16-3.36-.24-6.73-.21-10.13l-68.86,12.57a15.43,15.43,0,0,1-1.79.21q.11,5,.42,9.87A15.39,15.39,0,0,0,412.87,749.42Z"/><path class="cls-11" d="M484.65,769.36l11.63-2.12a5.23,5.23,0,0,0,2.81-8.79l-18.86-19.38A176.57,176.57,0,0,0,484.65,769.36Z"/><path class="cls-6" d="M480.84,746.65a176.36,176.36,0,0,0,3.81,22.71l11.63-2.12a5.31,5.31,0,0,0,1.43-.48,5.14,5.14,0,0,0-1.44-4.24Z"/><rect class="cls-11" x="757.73" y="369.86" width="33.44" height="433.45" rx="16.72" ry="16.72" transform="translate(-92.73 148.58) rotate(-10.34)"/><rect class="cls-6" x="759.44" y="388.76" width="33.44" height="414.39" rx="16.72" ry="16.72" transform="translate(-94.38 149.03) rotate(-10.34)"/><path class="cls-7" d="M773.6,768.19q9.76,7.49,19.89,15.85L758,589.58l-16.45,3Z"/><path class="cls-5" d="M741.55,592.58l16.45-3L722.52,395.13q-6.54,11.42-13,21.86Z"/><path class="cls-11" d="M368,588.87,470.28,570.2a15.32,15.32,0,0,0-17.76-12l-72.14,13.17A15.32,15.32,0,0,0,368,588.87Z"/><path class="cls-12" d="M234,245.2H198.54l-57.17-99.42h-.81q1.71,26.34,1.71,37.57V245.2h-24.9V113.78h35.15l57.08,98.43h.63q-1.35-25.62-1.35-36.23v-62.2H234Z"/><path class="cls-12" d="M373.37,179.31q0,32.63-16.18,50.16T310.81,247q-30.2,0-46.38-17.53t-16.18-50.34q0-32.81,16.22-50.11T311,111.71q30.29,0,46.34,17.44T373.37,179.31Zm-95.91,0q0,22,8.36,33.17t25,11.15q33.35,0,33.35-44.32T311,134.9q-16.63,0-25.08,11.19T277.46,179.31Z"/><path class="cls-12" d="M439.36,245.2H411.49V137H375.8V113.78H475V137H439.36Z"/><path class="cls-12" d="M482.32,245.2V113.78h27.87V245.2Z"/><path class="cls-12" d="M557.74,245.2H530.32V113.78h75.33v22.83H557.74V170.5h44.59v22.74H557.74Z"/><path class="cls-12" d="M618.41,245.2V113.78h27.86V245.2Z"/><path class="cls-12" d="M722.23,135.08q-15.73,0-24.36,11.82t-8.63,32.95q0,44,33,44,13.84,0,33.53-6.92v23.37Q739.58,247,719.62,247q-28.68,0-43.87-17.39t-15.19-49.93q0-20.49,7.46-35.91a53.93,53.93,0,0,1,21.44-23.64q14-8.22,32.76-8.22,19.15,0,38.47,9.26l-9,22.65a149.19,149.19,0,0,0-14.83-6.11A44.27,44.27,0,0,0,722.23,135.08Z"/><path class="cls-12" d="M857.19,245.2l-9.53-31.28H799.75l-9.53,31.28h-30l46.38-132h34.07l46.56,132ZM841,190.55Q827.8,148,826.14,142.46t-2.38-8.81q-3,11.51-17,56.9Z"/><path class="cls-12" d="M941.51,245.2H913.64V137H878V113.78h99.24V137H941.51Z"/><path class="cls-12" d="M985.47,245.2V113.78h27.87V245.2Z"/><path class="cls-12" d="M1153.75,179.31q0,32.63-16.18,50.16T1091.18,247q-30.2,0-46.38-17.53t-16.18-50.34q0-32.81,16.23-50.11t46.52-17.3q30.29,0,46.34,17.44T1153.75,179.31Zm-95.91,0q0,22,8.36,33.17t25,11.15q33.35,0,33.35-44.32t-33.17-44.41q-16.63,0-25.08,11.19T1057.83,179.31Z"/><path class="cls-12" d="M1282.63,245.2h-35.42L1190,145.78h-.81q1.71,26.34,1.71,37.57V245.2H1166V113.78h35.15l57.08,98.43h.63q-1.35-25.62-1.35-36.23v-62.2h25.08Z"/><polygon class="cls-13" points="1071.39 566.71 994.19 570.81 993.78 563.13 993.6 559.69 992.12 531.75 896.46 568.29 973.65 564.2 974.06 571.88 974.89 587.57 975.73 603.26 1071.39 566.71"/><polygon class="cls-13" points="1017.73 689.65 944.28 665.54 946.68 658.24 947.75 654.96 956.48 628.38 854.08 627.84 927.53 651.95 925.13 659.26 920.23 674.19 915.33 689.12 1017.73 689.65"/><polygon class="cls-13" points="977.94 454.88 910.96 493.48 907.12 486.82 905.4 483.83 891.43 459.59 822.68 535.48 889.66 496.88 893.5 503.55 901.35 517.16 909.19 530.77 977.94 454.88"/><polygon class="cls-14" points="1059.72 558.64 982.53 562.73 982.12 555.05 981.93 551.61 980.45 523.67 884.79 560.22 961.99 556.12 962.4 563.8 963.23 579.49 964.06 595.18 1059.72 558.64"/><polygon class="cls-14" points="1006.07 681.58 932.62 657.47 935.01 650.16 936.09 646.88 944.82 620.3 842.41 619.77 915.86 643.88 913.47 651.18 908.57 666.11 903.66 681.04 1006.07 681.58"/><polygon class="cls-14" points="966.28 446.81 899.3 485.41 895.46 478.74 893.74 475.75 879.77 451.51 811.02 527.41 878 488.81 881.84 495.47 889.68 509.08 897.53 522.7 966.28 446.81"/></g></svg>